<mxfile host="app.diagrams.net" modified="2023-05-31T14:46:22.208Z" agent="Mozilla/5.0 (Windows NT 10.0; Win64; x64) AppleWebKit/537.36 (KHTML, like Gecko) Chrome/107.0.0.0 Safari/537.36" version="21.3.2" etag="-ojZkznY_M1dWojXs1Fg" type="github">
  <diagram name="PÃ¡gina-1" id="a1VBZz_8FyC_FUf5CUjL">
    <mxGraphModel>
      <root>
        <mxCell id="0" />
        <mxCell id="1" parent="0" />
      </root>
    </mxGraphModel>
  </diagram>
</mxfile>
